Coordinates
version=1
nRows=17
nColumns=36
inDegrees=yes

Units are S.I. units (second, meters, Newtons, ...)
If the header above contains a line with 'inDegrees', this indicates whether rotational values are in degrees (yes) or radians (no).

endheader
time	pelvis_tilt	pelvis_list	pelvis_rotation	pelvis_tx	pelvis_ty	pelvis_tz	hip_flexion_r	hip_adduction_r	hip_rotation_r	knee_angle_r	knee_angle_r_beta	ankle_angle_r	subtalar_angle_r	mtp_angle_r	hip_flexion_l	hip_adduction_l	hip_rotation_l	knee_angle_l	knee_angle_l_beta	ankle_angle_l	subtalar_angle_l	mtp_angle_l	lumbar_extension	lumbar_bending	lumbar_rotation	arm_flex_r	arm_add_r	arm_rot_r	elbow_flex_r	pro_sup_r	arm_flex_l	arm_add_l	arm_rot_l	elbow_flex_l	pro_sup_l
      1.46666670	     -8.80111030	     -3.13746967	     -2.34289909	     -0.13388708	      1.25138025	      0.03184746	      7.28088883	      3.49542348	     10.50668459	      1.43952059	      0.02512437	      6.32000426	     -6.15349791	     -7.49999973	      8.61089782	     -5.77934852	     -1.32785981	     13.03093666	      0.22743275	     14.40071897	     -8.58914247	     -7.49999973	      3.79809885	      2.76059206	     -0.81767509	     27.47747539	     -1.34232839	     68.82094705	    122.61887071	     97.61125953	     39.94943500	      0.43467773	     69.09701992	    110.10141601	    104.77515323
      1.48333330	     -8.85173661	     -3.11242764	     -2.39165923	     -0.13472027	      1.25353656	      0.03213107	      7.39692124	      3.51842794	     10.86508770	      1.63737944	      0.02857766	      6.19510449	     -6.61715813	     -7.49999978	      8.56030658	     -5.75117113	     -1.29446590	     12.90640808	      0.22525932	     14.50855967	     -8.33985281	     -7.49999978	      3.94655446	      2.80249622	     -0.90025353	     27.77481769	     -1.12061237	     68.57383341	    122.07736139	     97.56559182	     40.29512748	      0.12478445	     69.03710191	    110.19213021	    104.06731077
      1.50000000	     -8.89474828	     -3.11450055	     -2.29023241	     -0.13342783	      1.25125589	      0.03189335	      7.37735254	      3.49987386	     10.67414651	      1.59430940	      0.02782595	      6.37686765	     -6.31877949	     -7.49999982	      8.59689105	     -5.71314960	     -1.03447497	     12.99201735	      0.22675348	     14.48076635	     -8.46988819	     -7.49999982	      3.96459697	      2.80128448	     -1.35518691	     27.91980839	     -0.92731526	     68.64890855	    121.65333040	     98.01527716	     40.65022375	     -0.08692394	     68.38343814	    109.97329221	    104.96808748
      1.51666670	     -9.02140219	     -3.08147002	     -2.36755109	     -0.13448937	      1.24606222	      0.03212606	      7.38271017	      3.47293961	     10.61231728	      1.57767359	      0.02753560	      6.45536305	     -6.35413421	     -7.49999983	      8.84002287	     -5.72929161	     -1.00111035	     13.28257740	      0.23182471	     14.73986047	     -8.42756168	     -7.49999983	      4.28801652	      2.71076498	     -1.60575352	     28.36430069	     -0.60820872	     68.36161568	    121.77630110	     96.81310835	     41.20540147	     -0.18829196	     67.99920254	    109.89231374	    104.20902206
      1.53333330	     -9.09978237	     -3.09416020	     -2.36338890	     -0.13322222	      1.25090688	      0.03184630	      7.49027365	      3.50930613	     10.59332673	      1.70177934	      0.02970165	      6.49970802	     -6.34976954	     -7.49999983	      8.91570436	     -5.75168898	     -0.93040980	     13.29835435	      0.23210007	     14.71518514	     -8.36902193	     -7.49999983	      4.18944977	      2.70340540	     -1.64128884	     28.35324999	     -0.57304365	     68.37685116	    121.74405305	     96.78980975	     41.36375906	     -0.32503203	     67.95956088	    109.81486419	    104.17338510
      1.55000000	     -9.13339144	     -3.16293017	     -2.34422844	     -0.13434457	      1.25310748	      0.03183004	      7.49962795	      3.56530283	     10.31505315	      1.71107255	      0.02986385	      6.66730738	     -6.15158092	     -7.49999984	      9.09903254	     -5.82828659	     -0.75005463	     13.65489727	      0.23832292	     14.91308177	     -8.31643243	     -7.49999984	      4.08515753	      2.81620565	     -2.23572392	     28.63877313	     -0.34456235	     69.20539002	    121.14439235	     93.23662945	     41.83807072	     -1.04168821	     69.13710549	    110.23252868	     99.76742473
      1.56666670	     -9.37378522	     -3.16494235	     -2.41355367	     -0.13318142	      1.25030804	      0.03168350	      7.75089142	      3.59881772	     10.29656012	      1.84196174	      0.03214830	      6.66671703	     -6.35268304	     -7.49999985	      9.52632465	     -5.88150918	     -0.70441574	     14.00707739	      0.24446962	     15.02008739	     -8.29174699	     -7.49999985	      4.21082343	      2.85983822	     -2.27943986	     28.64505264	     -0.27227359	     68.79600972	    120.47063826	     96.66990302	     41.84457627	     -1.20401915	     69.26345745	    110.95417744	    104.53380416
      1.58333330	     -9.51766657	     -3.26410034	     -2.22428468	     -0.13340833	      1.24920060	      0.03181226	      7.96699223	      3.71269759	     10.10369654	      2.04906724	      0.03576297	      6.74471813	     -6.41205591	     -7.49999986	      9.91333021	     -6.01929180	     -0.53995376	     14.36248098	      0.25067258	     15.22571374	     -8.13451203	     -7.49999986	      4.23092556	      2.83560452	     -2.95636171	     28.42638381	      0.24716610	     69.20187090	    120.22902049	     92.51036561	     42.22811817	     -1.65494189	     70.29927490	    111.56013378	     99.94210674
      1.60000000	     -9.80874730	     -3.36178377	     -2.16214551	     -0.13206982	      1.25356945	      0.03140492	      8.47860072	      3.85539052	     10.09963918	      2.41106482	      0.04208102	      6.83246709	     -6.70454826	     -7.49999986	     10.47906116	     -6.15411713	     -0.40944799	     14.79091424	      0.25815015	     15.48951470	     -8.01950301	     -7.49999986	      4.41888189	      2.95976097	     -3.01098878	     27.62350423	      0.54452225	     69.16567451	    120.06351557	     96.12493839	     41.75673065	     -1.82435853	     70.90753791	    112.25497789	    104.61956605
      1.61666670	     -9.98700905	     -3.40035734	     -2.15563275	     -0.13322600	      1.24877195	      0.03166452	      8.74590809	      3.91066201	     10.05183038	      2.51737513	      0.04393648	      6.82813529	     -6.80354029	     -7.49999986	     10.82145473	     -6.19123391	     -0.27472899	     15.17253695	      0.26481073	     15.53398621	     -8.08232798	     -7.49999986	      4.43953949	      3.02248474	     -2.92768450	     27.96374151	      0.97770017	     68.27610837	    119.10978136	     95.63658050	     41.81014397	     -2.15600710	     71.31947283	    113.27786031	    104.10740965
      1.63333330	    -10.15480124	     -3.51275908	     -2.09120415	     -0.13190450	      1.24968860	      0.03133214	      9.07081219	      4.03389627	      9.97049126	      2.72507553	      0.04756154	      6.92891260	     -6.86974167	     -7.49999987	     11.13550942	     -6.32900794	     -0.07066848	     15.50687874	      0.27064609	     15.78549312	     -7.92359440	     -7.49999987	      4.52392653	      3.16987662	     -2.62478435	     27.85214039	      1.14468584	     67.80182121	    118.67687669	     95.76549147	     41.42130180	     -2.30084588	     71.43754819	    113.29044389	    104.40761063
      1.65000000	    -10.37745521	     -3.58242969	     -2.06094641	     -0.13291783	      1.24800008	      0.03137025	      9.26349558	      4.08623191	      9.63097885	      2.76944547	      0.04833594	      6.98546751	     -6.82320468	     -7.49999987	     11.58391346	     -6.43709838	      0.06318198	     16.00622336	      0.27936130	     16.02613222	     -7.94512296	     -7.49999987	      4.62357913	      3.24379456	     -2.38489023	     28.32615132	      1.32862446	     67.93903118	    118.17442852	     94.93704733	     41.58750478	     -2.29839313	     71.88773005	    113.44140678	    103.47194301
      1.66666670	    -10.55039213	     -3.65090289	     -1.91741337	     -0.13167737	      1.24576895	      0.03107649	      9.39893897	      4.14406260	      9.36650050	      2.87654381	      0.05020516	      7.04358185	     -6.95625091	     -7.49999987	     11.89800624	     -6.52027951	      0.21950021	     16.28387565	      0.28420725	     16.26594930	     -7.81285038	     -7.49999987	      4.88103709	      3.29139082	     -2.53167625	     28.34797940	      1.53923708	     67.80355963	    118.04691272	     95.78105875	     41.54869270	     -2.36192529	     71.62805242	    113.53440299	    104.82690557
      1.68333330	    -10.54244702	     -3.66718080	     -1.80534004	     -0.12193661	      1.24839566	      0.02845744	      9.21155173	      4.11262317	      9.24427170	      2.87718496	      0.05021635	      7.16551305	     -7.03104249	     -7.49999987	     11.71239004	     -6.48343883	      0.27181306	     16.29121758	      0.28433539	     16.26418583	     -7.70646062	     -7.49999987	      5.12485607	      3.34246034	     -2.70253948	     27.58708840	      1.40281846	     68.06074332	    118.18890472	     95.81449137	     41.03198739	     -2.17017117	     71.75010560	    113.70050918	    104.82703726
      1.70000000	    -10.70663697	     -3.69957775	     -1.64468534	     -0.12023222	      1.24980527	      0.02790915	      9.22295681	      4.10766515	      9.02457838	      3.05603263	      0.05333783	      7.50063727	     -6.83871026	     -7.49999987	     11.74874183	     -6.52241895	      0.13875739	     16.47072439	      0.28746837	     16.27347481	     -7.42066518	     -7.49999987	      5.56159473	      3.35593410	     -2.64616929	     26.98690510	      1.25084506	     68.22549493	    118.50065517	     97.09244205	     40.35716562	     -1.78123633	     71.68690216	    113.57910815	    105.08678354
      1.71666670	    -10.67273374	     -3.72401737	     -1.51779314	     -0.12145151	      1.24851914	      0.02794118	      9.02751626	      4.09122755	      8.65870763	      3.25103760	      0.05674131	      7.67585294	     -7.09068596	     -7.49999987	     11.62440763	     -6.56480693	      0.07299854	     16.75254545	      0.29238708	     16.31170209	     -7.43499790	     -7.49999987	      5.60989422	      3.38954291	     -2.45479634	     27.02360474	      1.06383377	     68.13054510	    118.29178052	     97.09702695	     39.64142571	     -1.80120516	     72.02137615	    113.60770498	    105.11003197
      1.73333330	    -11.01452741	     -3.84246655	     -1.30287732	     -0.12989069	      1.24507244	      0.02327747	      9.51594539	      4.16752161	      8.24964543	      3.82020399	      0.06667514	      7.90791797	     -7.36157599	     -7.49999987	     12.22847223	     -6.65953718	      0.31004584	     17.28648609	      0.30170610	     16.93264759	     -7.10873937	     -7.49999987	      5.77305198	      3.62377052	     -2.55106297	     28.00345340	      0.87068369	     68.35506614	    118.37819561	     97.04244458	     40.14683998	     -1.51844504	     72.11441674	    113.33391688	    105.03936609
